<?xml version="1.0" encoding="UTF-8"?>
<svg version="1.1" xmlns="http://www.w3.org/2000/svg" width="93" height="22">
<path d="M0 0 C30.69 0 61.38 0 93 0 C93 7.26 93 14.52 93 22 C62.31 22 31.62 22 0 22 C0 14.74 0 7.48 0 0 Z " fill="#CDCCC9" transform="translate(0,0)"/>
<path d="M0 0 C1.21816406 0.03480469 1.21816406 0.03480469 2.4609375 0.0703125 C3.68683594 0.09738281 3.68683594 0.09738281 4.9375 0.125 C5.87722656 0.15980469 5.87722656 0.15980469 6.8359375 0.1953125 C6.8359375 1.1853125 6.8359375 2.1753125 6.8359375 3.1953125 C4.1959375 3.1953125 1.5559375 3.1953125 -1.1640625 3.1953125 C-1.1640625 3.8553125 -1.1640625 4.5153125 -1.1640625 5.1953125 C-0.2153125 5.1540625 0.7334375 5.1128125 1.7109375 5.0703125 C4.8359375 5.1953125 4.8359375 5.1953125 6.8359375 7.1953125 C6.8359375 8.5153125 6.8359375 9.8353125 6.8359375 11.1953125 C4.9609375 11.8203125 4.9609375 11.8203125 2.8359375 12.1953125 C2.1759375 11.5353125 1.5159375 10.8753125 0.8359375 10.1953125 C1.8259375 9.5353125 2.8159375 8.8753125 3.8359375 8.1953125 C1.5259375 7.8653125 -0.7840625 7.5353125 -3.1640625 7.1953125 C-3.7890625 4.8203125 -3.7890625 4.8203125 -4.1640625 2.1953125 C-2.1640625 0.1953125 -2.1640625 0.1953125 0 0 Z " fill="#E6D69D" transform="translate(62.1640625,2.8046875)"/>
<path d="M0 0 C1.98 0.66 3.96 1.32 6 2 C5.67 2.99 5.34 3.98 5 5 C3.88625 4.7525 3.88625 4.7525 2.75 4.5 C-0.19006578 3.88074304 -0.19006578 3.88074304 -4 4 C-6.66666667 4 -9.33333333 4 -12 4 C-12 3.01 -12 2.02 -12 1 C-11.21753906 1.01160156 -10.43507813 1.02320313 -9.62890625 1.03515625 C-8.61699219 1.04417969 -7.60507812 1.05320312 -6.5625 1.0625 C-5.04849609 1.07990234 -5.04849609 1.07990234 -3.50390625 1.09765625 C-1.05978933 1.28612676 -1.05978933 1.28612676 0 0 Z " fill="#DFD6B2" transform="translate(24,7)"/>
<path d="M0 0 C0.99 0 1.98 0 3 0 C3 3.96 3 7.92 3 12 C2.01 12 1.02 12 0 12 C0 8.04 0 4.08 0 0 Z " fill="#D1B97D" transform="translate(51,3)"/>
<path d="M0 0 C2.875 -0.125 2.875 -0.125 6 0 C8 2 8 2 8 6 C6.125 6.625 6.125 6.625 4 7 C3.34 6.34 2.68 5.68 2 5 C2.99 4.34 3.98 3.68 5 3 C3.35 2.67 1.7 2.34 0 2 C0 1.34 0 0.68 0 0 Z " fill="#F3E6A3" transform="translate(61,8)"/>
<path d="M0 0 C2.97 0.33 5.94 0.66 9 1 C7.515 3.475 7.515 3.475 6 6 C5.34 5.34 4.68 4.68 4 4 C3.01 4.495 3.01 4.495 2 5 C1.34 4.67 0.68 4.34 0 4 C0 2.68 0 1.36 0 0 Z " fill="#D9CDAA" transform="translate(37,7)"/>
<path d="M0 0 C1.32 0 2.64 0 4 0 C3.67 1.65 3.34 3.3 3 5 C2.01 5 1.02 5 0 5 C0 3.35 0 1.7 0 0 Z " fill="#CABC9D" transform="translate(7,7)"/>
</svg>
