<?xml version="1.0" standalone="no"?>
<!DOCTYPE svg PUBLIC "-//W3C//DTD SVG 20010904//EN"
 "http://www.w3.org/TR/2001/REC-SVG-20010904/DTD/svg10.dtd">
<svg version="1.0" xmlns="http://www.w3.org/2000/svg"
 width="480.000000pt" height="479.000000pt" viewBox="0 0 480.000000 479.000000"
 preserveAspectRatio="xMidYMid meet">

<g transform="translate(0.000000,479.000000) scale(0.100000,-0.100000)"
fill="#000000" stroke="none">
<path d="M0 2395 l0 -2395 2400 0 2400 0 0 2395 0 2395 -2400 0 -2400 0 0
-2395z m1048 748 l3 -133 -136 0 -135 0 0 128 c0 71 3 132 7 136 4 3 63 5 132
4 l126 -3 3 -132z m1542 2 l0 -135 -337 0 c-196 0 -353 -4 -374 -10 -170 -47
-208 -268 -62 -361 47 -29 48 -29 197 -29 189 0 274 -12 355 -51 155 -72 247
-197 271 -368 32 -223 -110 -444 -327 -511 -60 -18 -93 -20 -434 -20 l-369 0
0 135 0 134 364 3 364 3 44 30 c132 94 113 288 -34 350 -28 11 -75 15 -196 15
-190 0 -244 9 -337 54 -197 97 -304 324 -249 531 45 177 170 303 344 349 43
12 133 15 418 15 l362 1 0 -135z m1630 0 l0 -135 -585 0 -585 0 0 135 0 135
585 0 585 0 0 -135z m-3170 -905 l0 -580 -135 0 -135 0 0 580 0 580 135 0 135
0 0 -580z m3035 215 l0 -130 -517 -3 -518 -2 0 135 0 135 518 -2 517 -3 0
-130z m135 -660 l0 -135 -585 0 -585 0 0 135 0 135 585 0 585 0 0 -135z
m-3643 -822 c-2 -27 -3 -5 -3 47 0 52 1 74 3 48 2 -27 2 -69 0 -95z m1380 107
c3 -25 3 -25 -7 -2 -11 26 -55 30 -64 6 -18 -47 -1 -79 44 -86 21 -2 25 -8 25
-38 0 -32 -3 -35 -31 -38 -20 -2 -35 3 -45 15 -13 16 -12 17 3 5 27 -22 63
-11 63 18 0 19 -6 26 -25 28 -37 6 -50 21 -50 57 0 56 8 66 49 63 30 -3 36 -7
38 -28z m1126 23 c-32 -4 -33 -5 -33 -54 0 -42 3 -49 20 -49 11 0 20 -4 20
-10 0 -5 -9 -10 -20 -10 -15 0 -20 -7 -20 -24 0 -20 6 -25 33 -29 28 -3 26 -4
-10 -5 l-43 -2 0 95 0 95 43 -2 c36 -1 38 -2 10 -5z m-2385 -98 c-1 -53 -2
-55 -5 -15 -4 41 -22 70 -44 70 -5 0 -10 -30 -12 -67 l-3 -68 -2 72 -2 72 35
-2 35 -2 -2 -60z m120 58 c-15 -4 -18 -17 -20 -76 l-2 -72 -3 72 c-3 57 -7 73
-21 76 -9 3 1 5 23 5 22 0 32 -2 23 -5z m102 -2 c-31 -8 -41 -58 -16 -77 15
-10 15 -12 1 -18 -25 -9 -17 -34 13 -39 25 -4 25 -4 -5 -6 l-33 -1 0 75 0 75
33 -1 c29 -1 30 -2 7 -8z m243 -134 c31 -4 31 -4 -5 -5 l-38 -2 2 78 2 77 3
-72 4 -72 32 -4z m88 70 c1 -37 -1 -70 -4 -74 -4 -3 -7 29 -7 72 0 95 7 96 11
2z m113 67 c9 -3 16 -11 16 -16 0 -6 -6 -5 -15 2 -30 25 -46 4 -43 -57 3 -50
6 -58 23 -58 14 0 20 6 19 23 0 12 3 22 8 22 15 0 4 -42 -14 -53 -29 -19 -48
9 -48 67 0 65 16 85 54 70z m106 -3 c-20 -5 -26 -14 -28 -44 -3 -30 0 -37 15
-37 17 -1 17 -1 1 -11 -27 -15 -22 -37 10 -42 25 -4 25 -4 -5 -6 l-33 -1 0 75
0 75 33 -1 c29 -1 30 -2 7 -8z m157 -66 c0 -56 -1 -60 -4 -18 -4 51 -14 68
-43 75 -12 2 -16 -12 -21 -67 l-5 -70 -2 77 -2 77 39 -2 39 -1 -1 -71z m106
68 c-9 -3 -13 -28 -13 -75 0 -39 -3 -68 -7 -65 -3 4 -5 34 -4 66 2 48 -1 61
-16 70 -15 9 -12 10 17 10 19 0 29 -3 23 -6z m345 -5 c15 -15 16 -92 2 -119
-6 -10 -19 -19 -30 -19 -25 0 -40 29 -40 75 0 64 35 96 68 63z m95 5 c-19 -4
-23 -11 -23 -44 0 -30 4 -39 18 -40 16 -1 16 -2 0 -6 -11 -3 -18 -14 -18 -30
0 -15 -3 -23 -7 -19 -5 4 -8 39 -9 77 l-1 69 31 -1 c23 -1 26 -3 9 -6z m136
-3 c-13 -8 -17 -24 -17 -70 1 -33 -2 -64 -6 -67 -3 -3 -6 26 -6 65 0 59 -3 71
-17 75 -10 3 0 5 22 6 30 0 36 -2 24 -9z m81 -50 c18 -85 29 -89 45 -17 8 38
28 29 39 -16 11 -44 21 -47 30 -9 19 77 28 104 33 99 3 -3 -3 -38 -13 -77 -20
-78 -41 -90 -56 -32 -10 38 -24 35 -33 -8 -10 -44 -32 -37 -45 13 -6 23 -15
55 -20 71 -12 35 -12 36 -1 36 4 0 14 -27 21 -60z m280 41 c13 -26 13 -134 0
-126 -5 3 -10 15 -10 26 0 30 -42 21 -51 -11 -5 -16 -7 -3 -8 41 -1 38 4 70
11 77 18 18 46 14 58 -7z m118 7 c15 -15 16 -64 1 -73 -6 -4 -8 -21 -4 -38 l6
-32 -16 28 c-20 34 -35 35 -35 0 0 -14 -3 -23 -7 -19 -8 8 -14 115 -8 134 6
15 47 16 63 0z m105 5 c-19 -4 -23 -11 -23 -44 0 -30 4 -39 18 -40 16 -1 16
-2 0 -6 -26 -7 -22 -41 5 -46 16 -3 13 -5 -10 -6 l-33 -1 0 75 0 75 33 -1 c23
-1 26 -3 10 -6z m357 -70 c0 -89 -18 -97 -22 -10 -3 55 -5 62 -25 65 -21 3
-22 -1 -26 -65 l-3 -68 -2 77 -2 77 40 -2 40 -1 0 -73z m118 65 c21 -21 13
-32 -8 -13 -29 27 -42 8 -38 -56 2 -40 7 -54 18 -54 9 0 15 9 14 23 0 12 5 22
13 22 20 0 12 -40 -9 -54 -13 -8 -23 -8 -35 0 -22 13 -30 108 -12 130 14 17
41 18 57 2z m82 -63 c0 -43 -4 -75 -10 -75 -6 0 -10 32 -10 75 0 43 4 75 10
75 6 0 10 -32 10 -75z m118 -5 c-2 -73 -2 -73 -5 -15 -4 58 -13 75 -43 75 -12
0 -14 -12 -12 -65 3 -42 0 -65 -7 -65 -7 0 -11 28 -11 74 l0 75 40 -2 40 -1
-2 -76z m100 73 c-25 -4 -28 -8 -28 -44 0 -30 4 -39 18 -40 16 -1 16 -2 0 -6
-29 -7 -22 -41 10 -46 22 -3 20 -4 -10 -6 l-38 -1 0 75 0 75 38 -1 c30 -2 32
-3 10 -6z m112 -2 c-31 -8 -41 -58 -16 -77 15 -10 15 -12 1 -18 -25 -9 -17
-34 13 -39 25 -4 25 -4 -5 -6 l-33 -1 0 75 0 75 33 -1 c29 -1 30 -2 7 -8z
m142 -16 c8 -18 8 -31 -2 -54 -6 -16 -9 -40 -5 -53 6 -22 6 -22 -9 -4 -9 11
-16 23 -16 28 0 4 -4 8 -10 8 -5 0 -10 -9 -10 -19 0 -11 -4 -23 -10 -26 -6 -4
-10 22 -10 69 l0 76 30 0 c23 0 33 -6 42 -25z m65 -87 c-2 -24 -4 -7 -4 37 0
44 2 63 4 43 2 -21 2 -57 0 -80z m143 35 c0 -42 -4 -73 -10 -73 -6 0 -10 26
-10 59 0 44 -4 60 -16 65 -30 12 -34 5 -34 -59 0 -37 -4 -65 -10 -65 -6 0 -10
32 -10 75 l0 75 45 -2 45 -2 0 -73z m110 62 c7 -9 10 -18 6 -22 -3 -4 -13 2
-20 13 -23 30 -38 5 -34 -57 2 -40 7 -54 18 -54 9 0 15 9 14 23 0 12 5 22 13
22 20 0 12 -40 -9 -54 -13 -8 -23 -8 -35 0 -22 13 -30 108 -12 130 15 18 43
18 59 -1z m-3230 -55 c0 -27 -4 -50 -10 -50 -5 0 -10 23 -10 50 0 28 5 50 10
50 6 0 10 -22 10 -50z m49 -76 c2 -2 -10 -4 -27 -4 -17 0 -34 4 -37 10 -5 9
53 3 64 -6z"/>
<path d="M2037 1053 c-11 -10 -8 -111 3 -118 20 -13 40 17 40 59 0 49 -23 80
-43 59z"/>
<path d="M2621 1046 c-18 -21 -10 -60 13 -64 24 -5 35 14 27 46 -9 31 -24 38
-40 18z"/>
<path d="M2740 1020 c0 -34 3 -41 18 -38 12 2 17 13 17 38 0 25 -5 36 -17 38
-15 3 -18 -4 -18 -38z"/>
<path d="M3870 1020 c0 -34 3 -41 18 -38 12 2 17 13 17 38 0 25 -5 36 -17 38
-15 3 -18 -4 -18 -38z"/>
</g>
</svg>
